<svg width="114" height="114" viewBox="0 0 114 114" fill="none" xmlns="http://www.w3.org/2000/svg">
<path d="M86.2285 32.3188C80.9717 29.8394 75.2801 28.0399 69.3513 27.0002C69.2994 26.9985 69.2477 27.0084 69.1999 27.0291C69.1521 27.0498 69.1093 27.0809 69.0747 27.1202C68.3632 28.4398 67.5332 30.1594 66.9799 31.479C60.6914 30.5193 54.2963 30.5193 48.0079 31.479C47.4546 30.1194 46.6245 28.4398 45.8736 27.1202C45.834 27.0402 45.7155 27.0002 45.5969 27.0002C39.6682 28.0399 34.0161 29.8394 28.7198 32.3188C28.6802 32.3188 28.6407 32.3588 28.6012 32.3988C17.8504 48.6745 14.886 64.5104 16.3485 80.1863C16.3485 80.2662 16.388 80.3462 16.467 80.3862C23.5815 85.6648 30.4193 88.864 37.1781 90.9834C37.2967 91.0234 37.4152 90.9834 37.4548 90.9035C39.0358 88.704 40.4587 86.3846 41.6839 83.9453C41.763 83.7853 41.6839 83.6254 41.5258 83.5854C39.2729 82.7056 37.1386 81.6659 35.0437 80.4662C34.8856 80.3862 34.8856 80.1463 35.0042 80.0263C35.439 79.7064 35.8738 79.3465 36.3085 79.0266C36.3876 78.9466 36.5062 78.9466 36.5852 78.9866C50.1818 85.2649 64.8455 85.2649 78.284 78.9866C78.363 78.9466 78.4816 78.9466 78.5606 79.0266C78.9954 79.3865 79.4302 79.7064 79.865 80.0663C80.0231 80.1863 80.0231 80.4262 79.8254 80.5062C77.7701 81.7459 75.5963 82.7456 73.3434 83.6254C73.1853 83.6654 73.1457 83.8653 73.1853 83.9853C74.4501 86.4246 75.873 88.744 77.4144 90.9435C77.533 90.9834 77.6516 91.0234 77.7701 90.9834C84.5684 88.864 91.4062 85.6648 98.5207 80.3862C98.5998 80.3462 98.6393 80.2662 98.6393 80.1863C100.378 62.071 95.754 46.3551 86.3866 32.3988C86.347 32.3588 86.3075 32.3188 86.2285 32.3188ZM43.7392 70.6288C39.6682 70.6288 36.269 66.8298 36.269 62.151C36.269 57.4722 39.5891 53.6732 43.7392 53.6732C47.9289 53.6732 51.2489 57.5122 51.2094 62.151C51.2094 66.8298 47.8893 70.6288 43.7392 70.6288ZM71.2881 70.6288C67.217 70.6288 63.8179 66.8298 63.8179 62.151C63.8179 57.4722 67.138 53.6732 71.2881 53.6732C75.4777 53.6732 78.7978 57.5122 78.7583 62.151C78.7583 66.8298 75.4777 70.6288 71.2881 70.6288Z" fill="white"/>
</svg>
